# xmcd
#
# Track frame offsets: 
#        151
#        10849
#        27660
#        44185
#        62789
#        76069
#        88429
#        101392
#        117880
#        134800
#        152890
#        169352
#        182710
#        194448
#        208693
#        223082
#        243692
#        258427
#        268257
#        282622
#        293452
#        308873
#
# Disc length: 4393 seconds
#
# Revision: 0
# Processed by: cddbd v1.5.2PL0 Copyright (c) Steve Scherf et al.
# Submitted via: ExactAudioCopy v0.99pb4
#
DISCID=61112716
DTITLE=The Commitments - Best Of (Martin)
DYEAR=1991
DGENRE=Blues
TTITLE0=Hard To Handle
TTITLE1=Grits Ain't Groceries
TTITLE2=I Thank You
TTITLE3=That's The Way Love Is
TTITLE4=Show Me
TTITLE5=Too Many Fish In The Sea
TTITLE6=Fa-Fa-Fa-Fa-Fa (Sad Song)
TTITLE7=Nowhere To Run
TTITLE8=Bring It On Home To Me
TTITLE9=Mustang Sally
TTITLE10=Take Me To The River
TTITLE11=Chain Of Fools
TTITLE12=The Dark End Of The Street
TTITLE13=Destination Anywhere
TTITLE14=I Can't Stand The Rain
TTITLE15=Try A Little Tenderness
TTITLE16=Do Right Woman, Do Right Man
TTITLE17=Mr. Pitiful
TTITLE18=I Never Loved A Man
TTITLE19=In The Midnight Hour
TTITLE20=Bye Bye Baby
TTITLE21=Slip Away
EXTD=
EXTT0=
EXTT1=
EXTT2=
EXTT3=
EXTT4=
EXTT5=
EXTT6=
EXTT7=
EXTT8=
EXTT9=
EXTT10=
EXTT11=
EXTT12=
EXTT13=
EXTT14=
EXTT15=
EXTT16=
EXTT17=
EXTT18=
EXTT19=
EXTT20=
EXTT21=
PLAYORDER=
